<svg width="122" height="68" viewBox="0 0 122 68" fill="none" xmlns="http://www.w3.org/2000/svg">
<g clip-path="url(#clip0_8_1062)">
<path d="M56.981 21.6801L56.9811 21.6808C57.4607 25.8229 57.4626 31.6698 57.4381 38.5437V38.5473V65.398H43.3341V47.3954V47.3939L42.3341 47.3954C43.3341 47.3939 43.3341 47.3939 43.3341 47.3937L43.3341 47.3932V47.3909L43.3341 47.3821L43.334 47.3471L43.3338 47.2103L43.3328 46.6886C43.332 46.2377 43.3307 45.5901 43.3287 44.8036C43.3249 43.2305 43.3188 41.101 43.3097 38.8759C43.2914 34.4357 43.2609 29.5864 43.2116 28.0406L43.2115 28.0393C42.9858 21.2371 40.8742 15.5955 37.1815 11.6408C33.9599 8.19049 29.5961 6.091 24.4095 5.59575C27.8395 2.66532 32.0971 1 37.0149 1C42.6061 1 47.209 3.05071 50.604 6.6198C54.0122 10.2029 56.2558 15.3751 56.981 21.6801ZM15.1773 39.6071V65.4226H1.07328V37.1671C1.07328 36.6558 1.06712 36.1455 1.06104 35.6422L1.06101 35.6392C1.0549 35.133 1.04888 34.6338 1.04888 34.1356H1.04895L1.04881 34.1236C1.04529 33.8282 1.04128 33.5339 1.0373 33.2406C1.01345 31.4861 0.990082 29.7673 1.07209 28.0474C1.23913 24.7231 1.80868 21.5271 3.30627 18.5947L3.3082 18.5909C6.52126 12.2323 12.9184 7.99482 19.8562 7.50498C16.9672 11.2778 15.4388 15.8487 15.1783 22.261C15.1417 23.0253 15.145 25.1574 15.1494 28.0578C15.1511 29.1338 15.1529 30.3155 15.1529 31.5723C15.1529 32.7462 15.1585 33.988 15.1644 35.2761L15.1651 35.4371C15.1712 36.7836 15.1773 38.1802 15.1773 39.6071Z" stroke="white" stroke-width="2"/>
<path d="M102.167 60.469C109.115 59.9726 115.482 55.7376 118.692 49.3845L118.694 49.3806C120.192 46.4475 120.761 43.2755 120.928 39.9525C121.024 37.9444 121 35.9284 120.951 33.8886C120.927 32.8662 120.927 31.8458 120.927 30.8394V30.8329V2.57738H106.823V28.3929C106.823 31.2532 106.823 33.9837 106.847 36.4177L106.847 36.4225C106.871 41.1039 106.872 44.7118 106.822 45.7394M102.167 60.469C105.036 56.7137 106.562 52.1452 106.822 45.7394M102.167 60.469C101.73 60.5002 101.291 60.5166 100.85 60.5179L102.167 60.469ZM106.822 45.7394C106.822 45.741 106.822 45.7427 106.822 45.7443L105.823 45.6948L106.822 45.7353C106.822 45.7367 106.822 45.7381 106.822 45.7394ZM97.5871 62.3815C92.4119 61.8909 88.053 59.798 84.8344 56.3567C81.1382 52.4049 79.0263 46.7627 78.8129 39.9597L97.5871 62.3815ZM97.5871 62.3815C94.1531 65.3105 89.8815 66.9754 84.9852 66.9754C79.394 66.9754 74.791 64.9247 71.3961 61.3556C67.9882 57.7729 65.7448 52.6015 65.0193 46.2974C64.5635 42.1758 64.562 36.3032 64.562 29.4281V2.57585L78.666 2.55427V20.6046C78.666 29.3248 78.7147 36.9082 78.8129 39.9593L97.5871 62.3815Z" stroke="white" stroke-width="2"/>
</g>
<defs>
<clipPath id="clip0_8_1062">
<rect width="122" height="68" fill="white"/>
</clipPath>
</defs>
</svg>
