<svg width="122" height="68" viewBox="0 0 122 68" fill="none" xmlns="http://www.w3.org/2000/svg">
<g clip-path="url(#clip0_4_83)">
<path d="M22.0332 6.48206C25.8884 2.39072 30.988 0 37.0148 0C48.7268 0 56.486 8.62631 57.9744 21.5658C58.4624 25.7804 58.4624 31.6955 58.438 38.5473V66.398H42.334V47.3954C42.334 47.3954 42.3096 31.1287 42.212 28.0725C41.7728 14.8373 34.0136 6.5067 22.0332 6.48206C18.3976 10.3762 16.47 15.0837 16.1772 22.3052C16.1284 23.3157 16.1528 26.8895 16.1528 31.5723C16.1528 34.0123 16.1772 36.7481 16.1772 39.6071V66.4226H0.0732197V37.1671C0.0732197 36.1566 0.0488197 35.1461 0.0488197 34.1356C0.0244197 32.0899 -0.0243803 30.0442 0.0732197 27.9985C0.24402 24.5973 0.82962 21.2454 2.41562 18.1399C6.00242 11.0417 13.3712 6.45741 21.2036 6.45741C21.472 6.45741 21.7404 6.48206 22.0332 6.48206Z" fill="white"/>
<path d="M121.927 40.0015C122.024 37.9558 122 35.9101 121.951 33.8644C121.927 32.8539 121.927 31.8434 121.927 30.8329V1.57738H105.823V28.3929C105.823 31.2519 105.823 33.9877 105.847 36.4277C105.872 41.1352 105.872 44.709 105.823 45.6948C105.53 52.9163 103.602 57.6238 99.9912 61.4933C88.0108 61.4933 80.2272 53.1627 79.8124 39.9275C79.7148 36.896 79.666 29.3295 79.666 20.6046V1.55273L63.562 1.57738V29.4281C63.562 36.2798 63.562 42.2197 64.0256 46.4096C65.514 59.349 73.2732 67.9754 84.9852 67.9754C90.9876 67.9754 96.1116 65.5846 99.9668 61.4933C100.235 61.4933 100.504 61.518 100.796 61.518C108.653 61.518 115.998 56.9337 119.584 49.8355C121.17 46.73 121.756 43.4027 121.927 40.0015Z" fill="white"/>
</g>
<defs>
<clipPath id="clip0_4_83">
<rect width="122" height="68" fill="white"/>
</clipPath>
</defs>
</svg>
